<?xml version="1.0" encoding="UTF-8" standalone="no"?>
<!-- Created with Inkscape (http://www.inkscape.org/) -->
<svg
   xmlns:dc="http://purl.org/dc/elements/1.1/"
   xmlns:cc="http://creativecommons.org/ns#"
   xmlns:rdf="http://www.w3.org/1999/02/22-rdf-syntax-ns#"
   xmlns:svg="http://www.w3.org/2000/svg"
   xmlns="http://www.w3.org/2000/svg"
   xmlns:xlink="http://www.w3.org/1999/xlink"
   xmlns:sodipodi="http://sodipodi.sourceforge.net/DTD/sodipodi-0.dtd"
   xmlns:inkscape="http://www.inkscape.org/namespaces/inkscape"
   width="334.52869"
   height="347.15692"
   id="svg3640"
   sodipodi:version="0.32"
   inkscape:version="0.46"
   version="1.0"
   sodipodi:docname="manager_icon.svg"
   inkscape:output_extension="org.inkscape.output.svg.inkscape"
   inkscape:export-filename="/home/cfarmer/Pictures/g5342.png"
   inkscape:export-xdpi="90.039558"
   inkscape:export-ydpi="90.039558">
  <defs
     id="defs3642">
    <linearGradient
       id="linearGradient4647">
      <stop
         style="stop-color:#ffffff;stop-opacity:1"
         offset="0"
         id="stop4649" />
      <stop
         style="stop-color:#ffffff;stop-opacity:0;"
         offset="1"
         id="stop4651" />
    </linearGradient>
    <linearGradient
       inkscape:collect="always"
       xlink:href="#linearGradient4647"
       id="linearGradient3060"
       gradientUnits="userSpaceOnUse"
       gradientTransform="matrix(0.8332514,-5.541683e-2,0,0.7659398,-241.58111,-113.24413)"
       x1="375.77524"
       y1="243.05002"
       x2="433.03183"
       y2="319.75131" />
    <filter
       inkscape:collect="always"
       id="filter5333"
       x="-0.70170045"
       width="2.4034009"
       y="-0.79064178"
       height="2.5812836">
      <feGaussianBlur
         inkscape:collect="always"
         stdDeviation="30.863854"
         id="feGaussianBlur5335" />
    </filter>
    <clipPath
       id="clipPath19680">
      <path
         d="M 546.87832,320.08704 C 546.87832,380.40004 497.98497,429.2934 437.67196,429.2934 C 377.35896,429.2934 328.46561,380.40004 328.46561,320.08704 C 328.46561,259.77404 377.35896,210.88068 437.67196,210.88068 C 497.98497,210.88068 546.87832,259.77404 546.87832,320.08704 L 546.87832,320.08704 z"
         transform="matrix(1.0710594,-7.123266e-2,0,0.9845372,-55.580443,34.432872)"
         style="opacity:0.5;fill:url(#linearGradient19684);fill-opacity:1;fill-rule:nonzero;stroke:none;stroke-width:5.79056835;stroke-linecap:round;stroke-linejoin:round;stroke-miterlimit:4;stroke-dasharray:none;stroke-opacity:1"
         id="path19682" />
    </clipPath>
    <linearGradient
       id="linearGradient18695">
      <stop
         style="stop-color:#230001;stop-opacity:1"
         offset="0"
         id="stop18697" />
      <stop
         style="stop-color:#1b0000;stop-opacity:1"
         offset="1"
         id="stop18699" />
    </linearGradient>
    <linearGradient
       inkscape:collect="always"
       xlink:href="#linearGradient18695"
       id="linearGradient2890"
       gradientUnits="userSpaceOnUse"
       gradientTransform="translate(283.40975,0)"
       x1="145.98471"
       y1="220.0988"
       x2="221.61082"
       y2="282.17993" />
    <linearGradient
       id="linearGradient3284">
      <stop
         style="stop-color:#ccdbfa;stop-opacity:1;"
         offset="0"
         id="stop3304" />
      <stop
         id="stop3392"
         offset="0.5"
         style="stop-color:#8597be;stop-opacity:1;" />
      <stop
         style="stop-color:#3d4458;stop-opacity:1;"
         offset="1"
         id="stop3302" />
    </linearGradient>
    <radialGradient
       inkscape:collect="always"
       xlink:href="#linearGradient3284"
       id="radialGradient3400"
       cx="540"
       cy="354.69238"
       fx="540"
       fy="354.69238"
       r="132.27449"
       gradientTransform="matrix(-1.0686193e-7,1.8067458,-2.1714379,-2.7025583e-7,901.98332,-892.67443)"
       gradientUnits="userSpaceOnUse" />
    <inkscape:perspective
       sodipodi:type="inkscape:persp3d"
       inkscape:vp_x="0 : 526.18109 : 1"
       inkscape:vp_y="0 : 1000 : 0"
       inkscape:vp_z="744.09448 : 526.18109 : 1"
       inkscape:persp3d-origin="372.04724 : 350.78739 : 1"
       id="perspective3648" />
    <linearGradient
       inkscape:collect="always"
       xlink:href="#linearGradient18695"
       id="linearGradient3691"
       gradientUnits="userSpaceOnUse"
       gradientTransform="translate(283.40975,0)"
       x1="145.98471"
       y1="220.0988"
       x2="221.61082"
       y2="282.17993" />
    <linearGradient
       inkscape:collect="always"
       xlink:href="#linearGradient18695"
       id="linearGradient4534"
       gradientUnits="userSpaceOnUse"
       gradientTransform="translate(283.40975,0)"
       x1="145.98471"
       y1="220.0988"
       x2="221.61082"
       y2="282.17993" />
    <linearGradient
       inkscape:collect="always"
       xlink:href="#linearGradient18695"
       id="linearGradient2777"
       gradientUnits="userSpaceOnUse"
       gradientTransform="translate(283.40975,0)"
       x1="145.98471"
       y1="220.0988"
       x2="221.61082"
       y2="282.17993" />
    <linearGradient
       inkscape:collect="always"
       xlink:href="#linearGradient18695"
       id="linearGradient2779"
       gradientUnits="userSpaceOnUse"
       gradientTransform="translate(283.40975,0)"
       x1="145.98471"
       y1="220.0988"
       x2="221.61082"
       y2="282.17993" />
  </defs>
  <sodipodi:namedview
     id="base"
     pagecolor="#ffffff"
     bordercolor="#666666"
     borderopacity="1.0"
     gridtolerance="10000"
     guidetolerance="10"
     objecttolerance="10"
     inkscape:pageopacity="0.0"
     inkscape:pageshadow="2"
     inkscape:zoom="0.59859325"
     inkscape:cx="376.1957"
     inkscape:cy="21.415802"
     inkscape:document-units="px"
     inkscape:current-layer="layer1"
     showgrid="false"
     inkscape:window-width="1274"
     inkscape:window-height="757"
     inkscape:window-x="0"
     inkscape:window-y="0" />
  <metadata
     id="metadata3645">
    <rdf:RDF>
      <cc:Work
         rdf:about="">
        <dc:format>image/svg+xml</dc:format>
        <dc:type
           rdf:resource="http://purl.org/dc/dcmitype/StillImage" />
      </cc:Work>
    </rdf:RDF>
  </metadata>
  <g
     inkscape:groupmode="layer"
     id="layer2"
     inkscape:label="globe"
     style="display:inline">
    <g
       id="g2651"
       transform="matrix(1.1418698,0,0,1.1418698,-16.568516,-12.915975)"
       inkscape:export-filename="/home/cfarmer/.qgis/python/plugins/manageR/icons/manager.png"
       inkscape:export-xdpi="8.3500004"
       inkscape:export-ydpi="8.3500004">
      <path
         inkscape:export-ydpi="7.6018648"
         inkscape:export-xdpi="7.6018648"
         inkscape:export-filename="/home/cfarmer/.qgis/python/plugins/manageR/icons/manager.png"
         id="path2619"
         style="fill:#4e9a06;fill-opacity:1;fill-rule:nonzero;stroke:none;stroke-width:4.66800022;stroke-linecap:round;stroke-linejoin:round;stroke-miterlimit:4;stroke-dasharray:none;stroke-opacity:1;display:inline"
         d="M 249.34161,128.35785 C 249.34161,192.25375 197.74031,244.05164 134.08688,244.05164 C 70.433447,244.05164 18.832147,192.25375 18.832147,128.35785 C 18.832147,64.46192 70.433447,12.66405 134.08688,12.66405 C 197.74031,12.66405 249.34161,64.46192 249.34161,128.35785 L 249.34161,128.35785 z" />
      <path
         inkscape:export-ydpi="7.6018648"
         inkscape:export-xdpi="7.6018648"
         inkscape:export-filename="/home/cfarmer/.qgis/python/plugins/manageR/icons/manager.png"
         id="path2621"
         d="M 203.84911,157.8665 C 188.33826,157.86651 174.23275,163.4586 163.59911,172.679 C 170.80706,192.56362 184.11679,209.71762 201.41161,222.08525 C 218.95404,208.86249 232.62195,190.71735 240.38036,169.71025 C 230.27288,162.28304 217.59995,157.8665 203.84911,157.8665 z"
         style="fill:#ffffff;fill-opacity:1;fill-rule:evenodd;stroke:none;stroke-width:3.2420001;stroke-linecap:round;stroke-linejoin:round;marker:none;marker-start:none;marker-mid:none;marker-end:none;stroke-miterlimit:4;stroke-dasharray:none;stroke-dashoffset:0;stroke-opacity:1;visibility:visible;display:inline;overflow:visible;filter:url(#filter5333);enable-background:accumulate" />
      <text
         inkscape:export-ydpi="7.6018648"
         inkscape:export-xdpi="7.6018648"
         inkscape:export-filename="/home/cfarmer/.qgis/python/plugins/manageR/icons/manager.png"
         id="text4414"
         y="22.033325"
         x="98.329277"
         style="font-size:4px;font-style:normal;font-weight:normal;fill:#000000;fill-opacity:1;stroke:none;stroke-width:1px;stroke-linecap:butt;stroke-linejoin:miter;stroke-opacity:1;display:inline;font-family:Bitstream Vera Sans"
         xml:space="preserve"><tspan
           y="22.033325"
           x="98.329277"
           id="tspan4416"
           sodipodi:role="line">       </tspan></text>
      <path
         inkscape:export-ydpi="7.6018648"
         inkscape:export-xdpi="7.6018648"
         inkscape:export-filename="/home/cfarmer/.qgis/python/plugins/manageR/icons/manager.png"
         sodipodi:nodetypes="ccsssscssssssssssscsssssssssssscsscsssssscscssssssssssccsssscsscsssssssssssssssssssccccsssssssssssssccssccssssscsssssssccc"
         id="path2882"
         d="M 133.71439,12.14628 C 106.08253,12.14628 80.725047,21.90333 60.870637,38.17753 C 57.216937,41.73852 53.653957,45.64525 49.558137,50.17753 C 38.977237,61.88595 38.216787,72.2786 37.089387,76.61503 C 35.961887,80.95149 34.214387,99.43594 34.214387,101.08378 C 34.214287,102.73162 34.555647,102.90964 35.683137,102.30253 C 36.204837,102.02162 36.836247,100.84796 37.245637,99.95878 C 36.031437,103.08103 40.107947,107.83448 41.495637,108.61504 C 42.883337,109.39561 41.939747,107.49734 45.495637,111.83379 C 49.051537,116.17023 53.901887,115.8338 53.901887,115.83379 C 53.901787,115.83379 58.583747,127.60941 60.058137,129.08379 C 61.532537,130.55818 64.400147,132.92685 66.308137,132.14629 C 68.216137,131.36572 69.093947,132.06093 70.308137,133.70879 C 71.522337,135.35663 70.545887,142.27268 68.464387,143.83379 C 66.382887,145.39492 63.956587,151.71994 63.089387,156.49004 C 62.222087,161.26014 74.559547,176.14071 76.120637,178.67754 C 77.681737,181.21438 82.578187,185.87752 87.651887,191.14629 C 92.725487,196.41507 90.558147,203.06012 90.558137,211.64629 C 90.558137,220.23246 98.651887,233.42754 98.651887,233.42754 C 98.651887,233.42755 104.37585,241.59618 106.37064,235.95879 C 108.36544,230.32139 106.37345,231.88129 109.49564,226.67754 C 112.61794,221.47378 116.60369,218.00724 121.02689,217.83379 C 125.44999,217.66034 129.53285,216.09755 132.30814,212.02129 C 135.08344,207.94503 136.22305,203.33241 142.12064,201.77129 C 148.01824,200.21017 153.71569,195.43815 155.27689,191.70879 C 156.83799,187.97946 156.86295,189.38404 155.99564,187.30254 C 155.12834,185.22104 154.76799,182.86297 156.58939,180.52129 C 158.41069,178.17963 170.71789,168.66005 166.90189,164.58379 C 163.08579,160.50754 158.15269,159.79732 151.21439,157.80254 C 144.27599,155.80779 134.30599,154.67232 131.96439,152.67754 C 129.62269,150.68277 130.74989,145.74679 127.71439,141.58379 C 124.67889,137.42079 111.49565,135.95879 111.49564,135.95879 C 111.49564,135.95879 106.71725,128.39878 102.12064,127.27129 C 97.524037,126.14382 92.933147,125.61504 92.933137,125.61504 C 88.966037,122.28461 77.730347,120.44139 73.058137,127.52129 C 73.058137,127.52129 71.692587,128.06204 70.651887,127.02129 C 69.611087,125.98054 69.438687,124.94931 67.964387,125.99004 C 66.489987,127.03078 64.150487,128.13404 62.589387,126.05254 C 61.028287,123.97104 61.780687,119.02377 62.214387,117.89629 C 62.647987,116.7688 63.100687,111.32678 60.151887,111.24004 C 57.203087,111.15334 55.120647,110.8963 55.120637,110.89629 C 56.139937,106.86927 57.995987,105.14121 58.151887,98.74003 C 58.151887,98.74003 47.475587,107.16323 44.526887,102.74003 C 41.578087,98.31685 46.183147,84.17754 46.183137,84.17753 C 46.183137,84.17753 50.431287,83.74568 52.339387,82.27128 C 54.247387,80.79687 62.474147,76.52543 65.683137,81.20878 C 68.892137,85.89216 71.237187,83.21292 69.589387,87.89628 C 67.941487,92.57965 72.120647,91.89629 72.120637,91.89628 C 72.120637,91.89629 71.755387,81.05612 74.964387,77.24003 C 78.173287,73.42397 79.743147,73.58696 80.870637,73.24003 C 81.998137,72.89312 86.590147,70.04414 87.370637,68.39628 C 88.151237,66.74844 90.333287,61.18002 95.276887,60.05253 C 100.22039,58.92506 99.339387,59.02129 99.339387,59.02128 C 99.339287,59.02128 98.396887,56.77693 100.65189,55.30253 C 102.90679,53.82814 108.12065,56.24004 108.12064,56.24003 L 112.96439,56.24003 C 112.96429,56.24003 115.98795,52.77446 115.12064,52.42753 C 114.25334,52.08062 108.47005,50.35141 106.99564,46.70878 C 105.52124,43.06616 107.58829,43.74844 110.27689,45.39628 C 112.96539,47.04413 114.08375,46.86366 115.55814,45.30253 C 117.03254,43.7414 120.93315,44.11504 120.93314,44.11503 C 120.93314,44.11503 116.33895,48.45315 119.80814,49.92753 C 123.27734,51.40193 126.83549,51.48481 126.40189,49.49003 C 125.96819,47.49526 120.59095,32.56975 114.43314,32.39628 C 114.45244,32.40592 113.90885,32.57518 112.68314,33.02128 C 110.31544,33.88306 111.82719,32.4435 108.58939,29.55253 C 105.35149,26.66156 103.00399,30.06067 102.46439,31.83378 C 101.92469,33.6069 96.601147,38.68359 94.558137,40.30253 C 92.515137,41.92146 90.988287,38.49857 91.026887,36.80253 C 91.065387,35.10649 90.761647,36.26221 87.870637,33.83378 C 84.979737,31.40539 91.022387,29.9007 93.026887,27.89628 C 95.031287,25.89188 98.207947,26.741 100.05814,27.39628 C 101.90834,28.05157 103.01919,26.49844 106.52689,25.95878 C 110.03449,25.41914 109.75039,28.00243 113.02689,28.92753 C 116.30329,29.85264 121.77769,25.5122 123.58939,23.08378 C 125.40109,20.65536 121.87539,18.8046 116.40189,18.95878 C 110.92829,19.11297 112.42439,19.26207 115.27689,17.99003 C 118.12929,16.718 128.09429,16.78988 130.21439,18.17753 C 132.33439,19.5652 129.45799,24.35857 130.15189,26.20878 C 130.84569,28.059 133.38165,31.47751 137.12064,31.70878 C 140.85964,31.94006 140.93485,25.09219 142.37064,25.67753 C 144.85014,26.6884 149.99525,27.46498 150.93314,23.80253 C 151.21844,22.68853 139.77689,12.70879 139.77689,12.70878 C 141.18592,12.10043 159.0393,14.05649 174.12064,19.49003 C 161.543,14.76125 147.93646,12.14628 133.71439,12.14628 z M 180.37064,22.05253 C 185.6654,24.50714 190.14355,27.47252 192.77689,31.02128 C 192.77689,31.02128 195.97635,35.61642 193.80814,37.17753 C 191.63994,38.73865 190.24705,38.98963 191.80814,42.45878 C 193.36924,45.92794 195.28145,46.97035 196.49564,48.27128 C 197.70984,49.57222 200.22809,52.60485 196.15189,52.86503 C 192.07559,53.12521 188.96505,51.29442 189.74564,53.89628 C 190.52624,56.49816 190.85795,56.86257 192.24564,57.99003 C 193.63334,59.11751 199.02689,65.43139 199.02689,65.86503 C 199.02679,66.29867 205.87379,66.55433 205.52689,64.64628 C 205.17999,62.73824 202.41275,55.72531 202.93314,54.77128 C 203.45354,53.81726 203.09395,51.91983 204.30814,51.05253 C 205.52234,50.18524 206.40189,49.55888 206.40189,48.86503 C 206.40189,48.1712 206.05565,46.60237 207.18314,47.99003 C 208.31064,49.37769 212.45879,52.0743 213.93309,53.11503 C 215.40759,54.15579 222.43319,56.92754 222.43309,56.92753 L 229.12069,66.14628 C 229.12069,66.14628 227.11219,73.75271 225.46439,72.36503 C 223.81649,70.97737 217.39389,64.47284 212.27689,64.64628 C 207.15979,64.81974 200.40189,72.89629 200.40189,72.89628 L 200.40189,77.39628 C 200.40189,77.39629 203.17469,80.43525 201.52689,81.30253 C 199.87899,82.16982 197.37759,91.03671 197.46439,92.77128 C 197.55109,94.50587 197.29719,98.66032 196.77689,98.83378 C 196.25649,99.00723 197.71189,100.28919 198.83939,100.89628 C 199.96679,101.50339 200.58939,103.78245 200.58939,108.55254 C 200.58939,113.32264 200.65189,118.9588 200.65189,118.95879 C 200.65189,118.95879 207.53209,128.32183 209.52689,130.49004 C 211.52159,132.65826 215.07749,136.55185 217.24569,135.77129 C 219.41379,134.99073 221.32119,132.05255 224.18309,132.05254 C 227.04529,132.05253 227.47459,132.12454 227.21439,131.08379 C 226.95419,130.04303 227.80459,127.43842 231.62069,127.95879 C 235.43669,128.47917 237.50969,131.88213 237.68309,139.42754 C 237.85649,146.97298 239.09325,151.81774 238.57275,157.45513 C 238.05245,163.09253 232.12752,185.45888 230.7157,190.85602 C 234.32587,184.8798 248.6798,165.25727 248.96439,127.83379 C 248.96439,80.6204 220.76249,40.03873 180.37064,22.05253 z"
         style="fill:#8ae234;fill-opacity:1;fill-rule:nonzero;stroke:none;stroke-width:4.66800022;stroke-linecap:round;stroke-linejoin:round;stroke-miterlimit:4;stroke-dasharray:none;stroke-opacity:1;display:inline" />
      <text
         id="text2623"
         y="127.65276"
         x="61.373402"
         style="font-size:4px;font-style:normal;font-weight:normal;fill:#000000;fill-opacity:1;stroke:none;stroke-width:1px;stroke-linecap:butt;stroke-linejoin:miter;stroke-opacity:1;display:inline;font-family:Bitstream Vera Sans"
         xml:space="preserve"><tspan
           y="127.65276"
           x="61.373402"
           id="tspan2625"
           sodipodi:role="line">            111111</tspan><tspan
           id="tspan2627"
           y="132.65277"
           x="61.373402"
           sodipodi:role="line">        1111111111111</tspan><tspan
           id="tspan2629"
           y="137.65277"
           x="61.373402"
           sodipodi:role="line">        111111111111111</tspan><tspan
           id="tspan2631"
           y="142.65277"
           x="61.373402"
           sodipodi:role="line">        111111111111111111111</tspan><tspan
           id="tspan2633"
           y="147.65277"
           x="61.373402"
           sodipodi:role="line">      11111111111111111111111</tspan><tspan
           id="tspan2635"
           y="152.65277"
           x="61.373402"
           sodipodi:role="line">   1111111111111111111111111</tspan><tspan
           id="tspan2637"
           y="157.65277"
           x="61.373402"
           sodipodi:role="line">  1111111111111111111111111111</tspan><tspan
           id="tspan2639"
           y="162.65277"
           x="61.373402"
           sodipodi:role="line">    11111111111111111111111111111111111</tspan><tspan
           id="tspan2641"
           y="167.65277"
           x="61.373402"
           sodipodi:role="line">       11111111111111111111111111111111111111</tspan><tspan
           id="tspan2643"
           y="172.65277"
           x="61.373402"
           sodipodi:role="line">         111111111111111111111111111111111111</tspan><tspan
           id="tspan2645"
           y="177.65277"
           x="61.373402"
           sodipodi:role="line">            11111111111111111111111111111111</tspan><tspan
           id="tspan2647"
           y="182.65277"
           x="61.373402"
           sodipodi:role="line">                1111111111111111111111111111</tspan><tspan
           id="tspan2649"
           y="187.65277"
           x="61.373402"
           sodipodi:role="line">                   111111111111111111111111111</tspan><tspan
           id="tspan2651"
           y="192.65277"
           x="61.373402"
           sodipodi:role="line">                       1111111111111111111111111</tspan><tspan
           id="tspan2653"
           y="197.65277"
           x="61.373402"
           sodipodi:role="line">                        1111111111111111111111</tspan><tspan
           id="tspan2655"
           y="202.65277"
           x="61.373402"
           sodipodi:role="line">                         111111111111111111</tspan><tspan
           id="tspan2657"
           y="207.65277"
           x="61.373402"
           sodipodi:role="line">                         1111111111111111</tspan><tspan
           id="tspan2659"
           y="212.65277"
           x="61.373402"
           sodipodi:role="line">                        111111111111111</tspan><tspan
           id="tspan2661"
           y="217.65277"
           x="61.373402"
           sodipodi:role="line">                         111111111</tspan><tspan
           id="tspan2663"
           y="222.65277"
           x="61.373402"
           sodipodi:role="line">                           111111</tspan><tspan
           id="tspan2665"
           y="227.65277"
           x="61.373402"
           sodipodi:role="line">                            1111</tspan><tspan
           id="tspan2667"
           y="232.65277"
           x="61.373402"
           sodipodi:role="line">                               11</tspan><tspan
           id="tspan2669"
           y="237.65277"
           x="61.373402"
           sodipodi:role="line">                                1</tspan></text>
      <path
         inkscape:export-ydpi="7.6018648"
         inkscape:export-xdpi="7.6018648"
         inkscape:export-filename="/home/cfarmer/.qgis/python/plugins/manageR/icons/manager.png"
         id="path2851"
         style="fill:none;fill-opacity:1;fill-rule:nonzero;stroke:#000000;stroke-width:5;stroke-linecap:round;stroke-linejoin:round;stroke-miterlimit:4;stroke-dasharray:none;stroke-opacity:1;display:inline"
         d="M 247.51944,129.50505 C 247.51944,193.40095 195.91814,245.19883 132.26474,245.19883 C 68.611287,245.19883 17.009987,193.40095 17.009987,129.50505 C 17.009987,65.60911 68.611287,13.81125 132.26474,13.81125 C 195.91814,13.81125 247.51944,65.60911 247.51944,129.50505 L 247.51944,129.50505 z" />
      <flowRoot
         transform="translate(-340.70951,324.31478)"
         style="font-size:4px;font-style:normal;font-weight:normal;fill:#000000;fill-opacity:1;stroke:none;stroke-width:1px;stroke-linecap:butt;stroke-linejoin:miter;stroke-opacity:1;display:inline;font-family:Bitstream Vera Sans"
         id="flowRoot2671"
         xml:space="preserve"><flowRegion
           id="flowRegion2673"><rect
             y="-310.63379"
             x="370.91519"
             height="73.006813"
             width="121.67802"
             id="rect2675" /></flowRegion><flowPara
           id="flowPara2677" /><flowPara
           id="flowPara2679">    </flowPara><flowPara
           id="flowPara2681" /><flowPara
           id="flowPara2683">                                      111              11</flowPara><flowPara
           id="flowPara2685">                                1111111          1111111</flowPara><flowPara
           id="flowPara2687">                          11111111111    1111111111</flowPara><flowPara
           id="flowPara2689">                      1111111111111111111           11</flowPara><flowPara
           id="flowPara2691">                 11111111111111111111111</flowPara><flowPara
           id="flowPara2693">             11111111111111111111</flowPara><flowPara
           id="flowPara2695">          111111111111111111</flowPara><flowPara
           id="flowPara2697">         111111111111111111</flowPara><flowPara
           id="flowPara2699">       1111111111111111</flowPara><flowPara
           id="flowPara2701">       11111111111111</flowPara><flowPara
           id="flowPara2703">      11111             11</flowPara></flowRoot>      <path
         inkscape:export-ydpi="7.6018648"
         inkscape:export-xdpi="7.6018648"
         inkscape:export-filename="/home/cfarmer/.qgis/python/plugins/manageR/icons/manager.png"
         sodipodi:nodetypes="cssssssccsccccsscssssccccsssssc"
         id="path2888"
         clip-path="url(#clipPath19680)"
         style="opacity:0.1;fill:url(#linearGradient2779);fill-opacity:1;fill-rule:evenodd;stroke:none;stroke-width:1px;stroke-linecap:butt;stroke-linejoin:miter;marker:none;marker-start:none;marker-mid:none;marker-end:none;stroke-miterlimit:4;stroke-dashoffset:0;stroke-opacity:1;visibility:visible;display:inline;overflow:visible;enable-background:accumulate"
         transform="matrix(0.7779694,0,0,0.7779694,-199.28966,-140.49848)"
         d="M 411.08368,403.95928 C 411.08368,403.95928 416.35117,381.38433 436.16696,385.64848 C 455.98276,389.91264 449.96277,395.6818 457.98942,389.66181 C 466.01607,383.64182 463.50774,374.61184 458.99275,369.09352 C 454.47776,363.57519 435.91613,343.50857 430.89947,346.76939 C 425.88282,350.03022 410.08035,370.09685 403.80952,372.10351 C 397.5387,374.11017 389.51205,376.6185 393.77621,386.15015 C 398.04037,395.6818 388.25789,396.18346 411.08368,403.95928 z M 492.10269,302.62281 C 499.8785,287.82368 502.38683,276.28537 510.16265,280.54952 C 517.93846,284.81368 516.93513,273.77704 516.93513,273.77704 L 519.19263,246.93792 L 460.74858,210.81799 L 418.60866,206.55383 C 418.60866,206.55383 412.83951,238.66044 422.37116,247.18876 C 431.9028,255.71707 436.66863,258.9779 438.42446,255.9679 C 440.18029,252.95791 452.22026,249.69708 452.22026,249.69708 C 452.22026,249.69708 444.69528,272.02121 449.96277,275.28203 C 455.23026,278.54286 455.98276,283.30868 465.76524,283.55952 C 475.54772,283.81035 476.30022,288.82701 475.54772,290.332 C 474.79522,291.837 465.01274,301.87032 472.53772,306.38531 C 480.06271,310.9003 485.07937,303.62614 487.08603,303.37531 C 483.77262,324.77972 491.14613,346.27855 492.10269,302.62281 z M 454.64498,314.69066 L 473.48531,326.73064 C 473.48531,326.73064 468.8031,335.20321 461.44534,333.86544 C 454.08758,332.52766 456.42868,332.86211 455.31387,333.97692 C 454.19906,335.09173 453.08424,338.99358 449.73981,337.76728 C 446.39537,336.54099 442.27056,332.41618 445.615,329.85211 C 448.95944,327.28804 452.63832,327.95693 453.19572,325.95027 C 453.75313,323.94361 453.08424,315.0251 454.64498,314.69066 z" />
      <text
         id="text2705"
         y="87.631882"
         x="35.275623"
         style="font-size:4px;font-style:normal;font-weight:normal;fill:#000000;fill-opacity:1;stroke:none;stroke-width:1px;stroke-linecap:butt;stroke-linejoin:miter;stroke-opacity:1;display:inline;font-family:Bitstream Vera Sans"
         xml:space="preserve"><tspan
           y="87.631882"
           x="35.275623"
           id="tspan2707"
           sodipodi:role="line"> 111</tspan><tspan
           id="tspan2709"
           y="92.631882"
           x="35.275623"
           sodipodi:role="line"> 111</tspan><tspan
           id="tspan2711"
           y="97.631882"
           x="35.275623"
           sodipodi:role="line"> 11</tspan><tspan
           id="tspan2713"
           y="102.63188"
           x="35.275623"
           sodipodi:role="line">  11         </tspan><tspan
           id="tspan2715"
           y="107.63188"
           x="35.275623"
           sodipodi:role="line">    111111</tspan><tspan
           id="tspan2717"
           y="112.63188"
           x="35.275623"
           sodipodi:role="line">         111</tspan><tspan
           id="tspan2719"
           y="117.63188"
           x="35.275623"
           sodipodi:role="line">               111</tspan><tspan
           id="tspan2721"
           y="122.63188"
           x="35.275623"
           sodipodi:role="line">                 11</tspan><tspan
           id="tspan2723"
           y="127.63188"
           x="35.275623"
           sodipodi:role="line">                   1</tspan><tspan
           id="tspan2725"
           y="132.63188"
           x="35.275623"
           sodipodi:role="line">                     </tspan></text>
      <text
         inkscape:export-ydpi="7.6018648"
         inkscape:export-xdpi="7.6018648"
         inkscape:export-filename="/home/cfarmer/.qgis/python/plugins/manageR/icons/manager.png"
         id="text2908"
         y="22.151886"
         x="98.260017"
         style="font-size:4px;font-style:normal;font-weight:normal;fill:#000000;fill-opacity:1;stroke:none;stroke-width:1px;stroke-linecap:butt;stroke-linejoin:miter;stroke-opacity:1;display:inline;font-family:Bitstream Vera Sans"
         xml:space="preserve"><tspan
           y="22.151886"
           x="98.260017"
           id="tspan2910"
           sodipodi:role="line">       </tspan></text>
      <text
         id="text2727"
         y="71.072464"
         x="196.29616"
         style="font-size:4px;font-style:normal;font-weight:normal;fill:#000000;fill-opacity:1;stroke:none;stroke-width:1px;stroke-linecap:butt;stroke-linejoin:miter;stroke-opacity:1;display:inline;font-family:Bitstream Vera Sans"
         xml:space="preserve"><tspan
           y="71.072464"
           x="196.29616"
           id="tspan2729"
           sodipodi:role="line">       111111       1</tspan><tspan
           id="tspan2731"
           y="76.072464"
           x="196.29616"
           sodipodi:role="line">    11111111111</tspan><tspan
           id="tspan2733"
           y="81.072464"
           x="196.29616"
           sodipodi:role="line">     111111111111</tspan><tspan
           id="tspan2735"
           y="86.072464"
           x="196.29616"
           sodipodi:role="line">    1111111111111</tspan><tspan
           id="tspan2737"
           y="91.072464"
           x="196.29616"
           sodipodi:role="line">  111111111111111</tspan><tspan
           id="tspan2739"
           y="96.072464"
           x="196.29616"
           sodipodi:role="line">  111111111111111</tspan><tspan
           id="tspan2741"
           y="101.07246"
           x="196.29616"
           sodipodi:role="line">   1111111111111111</tspan><tspan
           id="tspan2743"
           y="106.07246"
           x="196.29616"
           sodipodi:role="line">    111111111111111</tspan><tspan
           id="tspan2745"
           y="111.07246"
           x="196.29616"
           sodipodi:role="line">    1111111111111111</tspan><tspan
           id="tspan2747"
           y="116.07246"
           x="196.29616"
           sodipodi:role="line">    1111111111111111</tspan><tspan
           id="tspan2749"
           y="121.07246"
           x="196.29616"
           sodipodi:role="line">     1111111111111111</tspan><tspan
           id="tspan2751"
           y="126.07246"
           x="196.29616"
           sodipodi:role="line">        111111111111111</tspan><tspan
           id="tspan2753"
           y="131.07246"
           x="196.29616"
           sodipodi:role="line">           111111         111</tspan><tspan
           id="tspan2755"
           y="136.07246"
           x="196.29616"
           sodipodi:role="line">                                 11</tspan><tspan
           id="tspan2757"
           y="141.07246"
           x="196.29616"
           sodipodi:role="line">                                 11</tspan><tspan
           id="tspan2759"
           y="146.07246"
           x="196.29616"
           sodipodi:role="line">                                 11</tspan><tspan
           id="tspan2900"
           y="151.07246"
           x="196.29616"
           sodipodi:role="line">                                  1</tspan></text>
      <text
         id="text2833"
         y="29.467133"
         x="176.82771"
         style="font-size:4px;font-style:normal;font-weight:normal;fill:#000000;fill-opacity:1;stroke:none;stroke-width:1px;stroke-linecap:butt;stroke-linejoin:miter;stroke-opacity:1;display:inline;font-family:Bitstream Vera Sans"
         xml:space="preserve"><tspan
           id="tspan2835"
           y="29.467133"
           x="176.82771"
           sodipodi:role="line" /><tspan
           id="tspan2904"
           y="34.467133"
           x="176.82771"
           sodipodi:role="line">              1</tspan><tspan
           id="tspan2837"
           y="39.467133"
           x="176.82771"
           sodipodi:role="line">              1</tspan><tspan
           id="tspan2839"
           y="44.467133"
           x="176.82771"
           sodipodi:role="line">             1111</tspan><tspan
           id="tspan2841"
           y="49.467133"
           x="176.82771"
           sodipodi:role="line">                 111</tspan><tspan
           id="tspan2843"
           y="54.467133"
           x="176.82771"
           sodipodi:role="line">                  1</tspan><tspan
           id="tspan2847"
           y="59.467133"
           x="176.82771"
           sodipodi:role="line">              111</tspan><tspan
           id="tspan2906"
           y="64.467133"
           x="176.82771"
           sodipodi:role="line">                 11</tspan></text>
      <text
         id="text2892"
         y="130.61476"
         x="64.059807"
         style="font-size:4px;font-style:normal;font-weight:normal;fill:#000000;fill-opacity:1;stroke:none;stroke-width:1px;stroke-linecap:butt;stroke-linejoin:miter;stroke-opacity:1;display:inline;font-family:Bitstream Vera Sans"
         xml:space="preserve"><tspan
           y="130.61476"
           x="64.059807"
           id="tspan2894"
           sodipodi:role="line">11</tspan></text>
      <text
         id="text2789"
         y="28.079552"
         x="126.59679"
         style="font-size:4px;font-style:normal;font-weight:normal;fill:#19242e;fill-opacity:0.46859903;stroke:none;stroke-width:1px;stroke-linecap:butt;stroke-linejoin:miter;stroke-opacity:1;display:inline;font-family:Bitstream Vera Sans"
         xml:space="preserve"><tspan
           y="28.079552"
           x="126.59679"
           id="tspan2791"
           sodipodi:role="line" /><tspan
           id="tspan2793"
           y="33.079552"
           x="126.59679"
           sodipodi:role="line">11       11111111</tspan><tspan
           id="tspan2795"
           y="38.079552"
           x="126.59679"
           sodipodi:role="line">11111111111111111</tspan><tspan
           id="tspan2797"
           y="43.079552"
           x="126.59679"
           sodipodi:role="line">111111111111111111111</tspan><tspan
           id="tspan2799"
           y="48.079552"
           x="126.59679"
           sodipodi:role="line">  1111111111111111111111</tspan><tspan
           id="tspan2801"
           y="53.079552"
           x="126.59679"
           sodipodi:role="line">    1111111111111111111111</tspan><tspan
           id="tspan2803"
           y="58.079552"
           x="126.59679"
           sodipodi:role="line">         1          11111111111111</tspan><tspan
           id="tspan2805"
           y="63.079552"
           x="126.59679"
           sodipodi:role="line">                   11111111111111111</tspan><tspan
           id="tspan2807"
           y="68.079552"
           x="126.59679"
           sodipodi:role="line">                   111111111111111111</tspan><tspan
           id="tspan2809"
           y="73.079552"
           x="126.59679"
           sodipodi:role="line">                    11111111111111111111</tspan><tspan
           id="tspan2811"
           y="78.079552"
           x="126.59679"
           sodipodi:role="line">                         1111111111111</tspan><tspan
           id="tspan2813"
           y="83.079552"
           x="126.59679"
           sodipodi:role="line">                                   1111111</tspan><tspan
           id="tspan2815"
           y="88.079552"
           x="126.59679"
           sodipodi:role="line">                                   111111</tspan><tspan
           id="tspan2817"
           y="93.079552"
           x="126.59679"
           sodipodi:role="line">                                 111111</tspan><tspan
           id="tspan2819"
           y="98.079552"
           x="126.59679"
           sodipodi:role="line">                                  11    1</tspan><tspan
           id="tspan2821"
           y="103.07955"
           x="126.59679"
           sodipodi:role="line">                                          1</tspan><tspan
           id="tspan2823"
           y="108.07955"
           x="126.59679"
           sodipodi:role="line" /><tspan
           id="tspan2825"
           y="113.07955"
           x="126.59679"
           sodipodi:role="line">                      111</tspan><tspan
           id="tspan2831"
           y="118.07955"
           x="126.59679"
           sodipodi:role="line">                    1  111</tspan></text>
      <text
         id="text2769"
         y="133.12822"
         x="105.9027"
         style="font-size:4px;font-style:normal;font-weight:normal;fill:#19242e;fill-opacity:0.46859903;stroke:none;stroke-width:1px;stroke-linecap:butt;stroke-linejoin:miter;stroke-opacity:1;display:inline;font-family:Bitstream Vera Sans"
         xml:space="preserve"><tspan
           y="133.12822"
           x="105.9027"
           id="tspan2771"
           sodipodi:role="line">                       11</tspan><tspan
           id="tspan2773"
           y="138.12822"
           x="105.9027"
           sodipodi:role="line">                   111111</tspan><tspan
           id="tspan2775"
           y="143.12822"
           x="105.9027"
           sodipodi:role="line">                  111111111</tspan><tspan
           id="tspan2777"
           y="148.12822"
           x="105.9027"
           sodipodi:role="line">                    111111111</tspan><tspan
           id="tspan2779"
           y="153.12822"
           x="105.9027"
           sodipodi:role="line">                      1111111111</tspan><tspan
           id="tspan2787"
           y="158.12822"
           x="105.9027"
           sodipodi:role="line">                                     111</tspan></text>
      <text
         id="text3041"
         y="20.099419"
         x="86.074699"
         style="font-size:4px;font-style:normal;font-weight:normal;fill:#000000;fill-opacity:1;stroke:none;stroke-width:1px;stroke-linecap:butt;stroke-linejoin:miter;stroke-opacity:1;display:inline;font-family:Bitstream Vera Sans"
         xml:space="preserve"><tspan
           y="20.099419"
           x="86.074699"
           id="tspan3043"
           sodipodi:role="line">                                    11111</tspan><tspan
           id="tspan3045"
           y="25.099419"
           x="86.074699"
           sodipodi:role="line">        111111111          1111111</tspan><tspan
           id="tspan3047"
           y="30.099419"
           x="86.074699"
           sodipodi:role="line">1                                    11</tspan></text>
      <text
         id="text3049"
         y="27.231178"
         x="90.32476"
         style="font-size:4px;font-style:normal;font-weight:normal;fill:#000000;fill-opacity:1;stroke:none;stroke-width:1px;stroke-linecap:butt;stroke-linejoin:miter;stroke-opacity:1;display:inline;font-family:Bitstream Vera Sans"
         xml:space="preserve"><tspan
           y="27.231178"
           x="90.32476"
           id="tspan3051"
           sodipodi:role="line">1</tspan></text>
      <path
         id="path3058"
         style="opacity:0.5;fill:url(#linearGradient3060);fill-opacity:1;fill-rule:nonzero;stroke:none;stroke-width:5.79056835;stroke-linecap:round;stroke-linejoin:round;stroke-miterlimit:4;stroke-dasharray:none;stroke-opacity:1;display:inline"
         d="M 214.10601,101.61701 C 214.10601,147.81315 173.36556,187.97202 123.10966,191.31439 C 72.853766,194.65673 32.113316,159.91689 32.113316,113.72076 C 32.113316,67.524625 72.853766,27.365737 123.10966,24.023381 C 173.36556,20.681025 214.10601,55.420885 214.10601,101.61701 z" />
    </g>
  </g>
  <g
     inkscape:label="r_logo"
     inkscape:groupmode="layer"
     id="layer1"
     transform="translate(15.560507,20.64161)"
     style="display:inline">
    <path
       style="font-size:4px;font-style:normal;font-weight:normal;fill:url(#radialGradient3400);fill-opacity:1;stroke:#000000;stroke-width:5.66158485;stroke-linecap:round;stroke-linejoin:miter;stroke-miterlimit:4;stroke-dasharray:none;stroke-opacity:1;display:inline;font-family:Bitstream Vera Sans"
       d="M 146.17274,202.4613 L 167.6386,202.4613 C 183.19528,202.4613 220.8731,203.19185 227.3852,210.4275 C 233.17371,217.3014 234.62085,213.6766 236.068,234.29825 C 240.81751,268.96205 233.05433,309.43921 271.34282,322.375 C 314.15061,333.8453 318.99668,266.19099 315.01358,266.19099 C 307.0474,266.19099 311.03049,290.08964 296.66764,291.98516 C 292.68804,291.98516 288.34662,289.81448 286.1759,286.55842 C 284.00519,283.66413 283.64345,281.13167 281.83456,269.55459 C 281.83456,268.10747 281.11098,264.48962 280.38742,259.42465 L 277.85488,245.67685 C 272.58857,214.07927 257.34306,198.4347 227.80816,187.91209 C 226.90817,187.59144 225.39628,186.70615 227.20518,186.34437 C 246.3797,182.72657 255.7861,180.19403 264.83066,175.85263 C 286.89949,164.63735 299.56193,144.73921 299.56193,121.22329 C 299.56193,99.516327 289.0702,81.065317 270.25743,68.764697 C 256.50965,60.081887 233.35547,57.669976 200.07142,57.669976 L 123.03262,59.069477 C 117.00293,59.069477 110.97316,65.099207 110.97316,71.128927 L 110.97316,305.04547 C 110.97316,311.07519 117.00293,317.10493 123.03262,317.10493 L 133.74439,316.94825 C 139.77413,316.94825 145.80387,310.91852 145.80387,304.8888 C 145.80387,302.47689 145.80387,267.50449 146.04504,264.48962 L 146.17274,202.4613 M 145.80387,99.878077 C 145.80387,79.256447 149.78352,75.276787 172.93764,75.276787 L 181.62043,75.276787 C 215.26629,75.276787 230.46122,90.109967 230.46122,123.03224 C 230.46122,159.93413 215.75577,178.56266 167.6386,178.56266 L 146.29335,179.28623 L 145.99187,179.28623 L 145.80387,99.878077 z"
       id="text2508"
       sodipodi:nodetypes="cccccccccccsccscccccccccccccscccc"
       inkscape:export-filename="/home/cfarmer/.qgis/python/plugins/manageR/icons/manager.png"
       inkscape:export-xdpi="7.9506426"
       inkscape:export-ydpi="7.9506426" />
  </g>
</svg>
