<?xml version="1.0" encoding="UTF-8" standalone="no"?>
<!-- Created with Inkscape (http://www.inkscape.org/) -->

<svg
   xmlns:dc="http://purl.org/dc/elements/1.1/"
   xmlns:cc="http://creativecommons.org/ns#"
   xmlns:rdf="http://www.w3.org/1999/02/22-rdf-syntax-ns#"
   xmlns:svg="http://www.w3.org/2000/svg"
   xmlns="http://www.w3.org/2000/svg"
   xmlns:xlink="http://www.w3.org/1999/xlink"
   xmlns:sodipodi="http://sodipodi.sourceforge.net/DTD/sodipodi-0.dtd"
   xmlns:inkscape="http://www.inkscape.org/namespaces/inkscape"
   version="1.0"
   width="48"
   height="48"
   id="svg2"
   inkscape:version="0.47 r22583"
   sodipodi:docname="applications-internet.svg">
  <metadata
     id="metadata47">
    <rdf:RDF>
      <cc:Work
         rdf:about="">
        <dc:format>image/svg+xml</dc:format>
        <dc:type
           rdf:resource="http://purl.org/dc/dcmitype/StillImage" />
        <dc:title></dc:title>
      </cc:Work>
    </rdf:RDF>
  </metadata>
  <sodipodi:namedview
     pagecolor="#ffffff"
     bordercolor="#666666"
     borderopacity="1"
     objecttolerance="10"
     gridtolerance="10"
     guidetolerance="10"
     inkscape:pageopacity="0"
     inkscape:pageshadow="2"
     inkscape:window-width="897"
     inkscape:window-height="637"
     id="namedview45"
     showgrid="false"
     inkscape:zoom="4.9166667"
     inkscape:cx="15.394995"
     inkscape:cy="20.946019"
     inkscape:window-x="0"
     inkscape:window-y="24"
     inkscape:window-maximized="0"
     inkscape:current-layer="layer3" />
  <defs
     id="defs4">
    <inkscape:perspective
       sodipodi:type="inkscape:persp3d"
       inkscape:vp_x="0 : 24 : 1"
       inkscape:vp_y="0 : 1000 : 0"
       inkscape:vp_z="48 : 24 : 1"
       inkscape:persp3d-origin="24 : 16 : 1"
       id="perspective49" />
    <linearGradient
       id="linearGradient6326">
      <stop
         id="stop6328"
         style="stop-color:#debc8c;stop-opacity:1"
         offset="0" />
      <stop
         id="stop6330"
         style="stop-color:#f4ac72;stop-opacity:1"
         offset="1" />
    </linearGradient>
    <linearGradient
       id="linearGradient3156">
      <stop
         id="stop3158"
         style="stop-color:#ffffff;stop-opacity:1"
         offset="0" />
      <stop
         id="stop3160"
         style="stop-color:#ffffff;stop-opacity:0"
         offset="1" />
    </linearGradient>
    <linearGradient
       id="linearGradient6493">
      <stop
         id="stop6495"
         style="stop-color:#4580d4;stop-opacity:1"
         offset="0" />
      <stop
         id="stop6497"
         style="stop-color:#114796;stop-opacity:1"
         offset="1" />
    </linearGradient>
    <linearGradient
       id="linearGradient4103">
      <stop
         id="stop4105"
         style="stop-color:#70adfb;stop-opacity:1"
         offset="0" />
      <stop
         id="stop4107"
         style="stop-color:#3465a4;stop-opacity:1"
         offset="1" />
    </linearGradient>
    <linearGradient
       id="linearGradient8838">
      <stop
         id="stop8840"
         style="stop-color:#000000;stop-opacity:1"
         offset="0" />
      <stop
         id="stop8842"
         style="stop-color:#000000;stop-opacity:0"
         offset="1" />
    </linearGradient>
    <radialGradient
       cx="62.625"
       cy="4.625"
       r="10.625"
       fx="62.625"
       fy="4.625"
       id="radialGradient5729"
       xlink:href="#linearGradient8838"
       gradientUnits="userSpaceOnUse"
       gradientTransform="matrix(1,0,0,0.341176,0,3.047059)" />
    <linearGradient
       x1="24.335312"
       y1="61.852856"
       x2="28.290144"
       y2="20.663898"
       id="linearGradient5745"
       xlink:href="#linearGradient3156"
       gradientUnits="userSpaceOnUse" />
    <linearGradient
       x1="27.888655"
       y1="-0.81503254"
       x2="28.290144"
       y2="20.663898"
       id="linearGradient5747"
       xlink:href="#linearGradient3156"
       gradientUnits="userSpaceOnUse" />
    <linearGradient
       x1="28.220636"
       y1="-2.3103411"
       x2="28.290144"
       y2="20.663898"
       id="linearGradient5749"
       xlink:href="#linearGradient3156"
       gradientUnits="userSpaceOnUse" />
    <linearGradient
       x1="30.501778"
       y1="55.647495"
       x2="29.724815"
       y2="24.653727"
       id="linearGradient5751"
       xlink:href="#linearGradient3156"
       gradientUnits="userSpaceOnUse" />
    <radialGradient
       cx="22.944935"
       cy="11.222695"
       r="14"
       fx="22.944935"
       fy="4.7612267"
       id="radialGradient5537"
       xlink:href="#linearGradient3156"
       gradientUnits="userSpaceOnUse"
       gradientTransform="matrix(1.3571044,0.01021839,-0.00631345,0.8384895,-10.874695,1.3057951)" />
    <radialGradient
       cx="22.125"
       cy="10.874998"
       r="20"
       fx="22.125"
       fy="10.874998"
       id="radialGradient5540"
       xlink:href="#linearGradient3156"
       gradientUnits="userSpaceOnUse"
       gradientTransform="matrix(1.0099925,-0.1119962,0.05668752,0.5112133,-5.8375646,1.7934718)" />
    <radialGradient
       cx="20.038782"
       cy="12.610249"
       r="22.463524"
       fx="20.038782"
       fy="12.610249"
       id="radialGradient5551"
       xlink:href="#linearGradient4103"
       gradientUnits="userSpaceOnUse"
       gradientTransform="matrix(1.9524671,-0.05018139,0.03650944,1.4214826,-20.408334,-5.9089096)" />
    <linearGradient
       x1="29.01346"
       y1="29"
       x2="29.75"
       y2="50"
       id="linearGradient5553"
       xlink:href="#linearGradient6493"
       gradientUnits="userSpaceOnUse"
       gradientTransform="translate(-5.0000016,-6)" />
    <radialGradient
       cx="26"
       cy="15.240479"
       r="15.074549"
       fx="26"
       fy="15.240479"
       id="radialGradient6332"
       xlink:href="#linearGradient6326"
       gradientUnits="userSpaceOnUse"
       gradientTransform="matrix(2.2554569,0,-2.1857407e-8,2.0564463,-32.641879,-17.341228)" />
    <radialGradient
       inkscape:collect="always"
       xlink:href="#linearGradient8838"
       id="radialGradient2870"
       gradientUnits="userSpaceOnUse"
       gradientTransform="matrix(1,0,0,0.341176,0,3.047059)"
       cx="62.625"
       cy="4.625"
       fx="62.625"
       fy="4.625"
       r="10.625" />
    <radialGradient
       inkscape:collect="always"
       xlink:href="#linearGradient4103"
       id="radialGradient2872"
       gradientUnits="userSpaceOnUse"
       gradientTransform="matrix(1.9524671,-0.05018139,0.03650944,1.4214826,-20.408334,-5.9089096)"
       cx="20.038782"
       cy="12.610249"
       fx="20.038782"
       fy="12.610249"
       r="22.463524" />
    <linearGradient
       inkscape:collect="always"
       xlink:href="#linearGradient6493"
       id="linearGradient2874"
       gradientUnits="userSpaceOnUse"
       gradientTransform="translate(-5.0000016,-6)"
       x1="29.01346"
       y1="29"
       x2="29.75"
       y2="50" />
    <radialGradient
       inkscape:collect="always"
       xlink:href="#linearGradient6326"
       id="radialGradient2876"
       gradientUnits="userSpaceOnUse"
       gradientTransform="matrix(2.2554569,0,-2.1857407e-8,2.0564463,-32.641879,-17.341228)"
       cx="26"
       cy="15.240479"
       fx="26"
       fy="15.240479"
       r="15.074549" />
    <radialGradient
       inkscape:collect="always"
       xlink:href="#linearGradient3156"
       id="radialGradient2878"
       gradientUnits="userSpaceOnUse"
       gradientTransform="matrix(1.0099925,-0.1119962,0.05668752,0.5112133,-5.8375646,1.7934718)"
       cx="22.125"
       cy="10.874998"
       fx="22.125"
       fy="10.874998"
       r="20" />
    <radialGradient
       inkscape:collect="always"
       xlink:href="#linearGradient3156"
       id="radialGradient2880"
       gradientUnits="userSpaceOnUse"
       gradientTransform="matrix(1.3571044,0.01021839,-0.00631345,0.8384895,-10.874695,1.3057951)"
       cx="22.944935"
       cy="11.222695"
       fx="22.944935"
       fy="4.7612267"
       r="14" />
    <linearGradient
       inkscape:collect="always"
       xlink:href="#linearGradient3156"
       id="linearGradient2882"
       gradientUnits="userSpaceOnUse"
       x1="24.335312"
       y1="61.852856"
       x2="28.290144"
       y2="20.663898" />
    <linearGradient
       inkscape:collect="always"
       xlink:href="#linearGradient3156"
       id="linearGradient2884"
       gradientUnits="userSpaceOnUse"
       x1="27.888655"
       y1="-0.81503254"
       x2="28.290144"
       y2="20.663898" />
    <linearGradient
       inkscape:collect="always"
       xlink:href="#linearGradient3156"
       id="linearGradient2886"
       gradientUnits="userSpaceOnUse"
       x1="28.220636"
       y1="-2.3103411"
       x2="28.290144"
       y2="20.663898" />
    <linearGradient
       inkscape:collect="always"
       xlink:href="#linearGradient3156"
       id="linearGradient2888"
       gradientUnits="userSpaceOnUse"
       x1="30.501778"
       y1="55.647495"
       x2="29.724815"
       y2="24.653727" />
    <linearGradient
       inkscape:collect="always"
       xlink:href="#linearGradient3156"
       id="linearGradient2895"
       gradientUnits="userSpaceOnUse"
       x1="30.501778"
       y1="55.647495"
       x2="29.724815"
       y2="24.653727"
       gradientTransform="matrix(-0.1600777,-1.1032472,0.4856389,0.01692093,16.935466,54.089297)" />
    <linearGradient
       inkscape:collect="always"
       xlink:href="#linearGradient3156"
       id="linearGradient2898"
       gradientUnits="userSpaceOnUse"
       x1="28.220636"
       y1="-2.3103411"
       x2="28.290144"
       y2="20.663898"
       gradientTransform="matrix(-0.09940095,-1.1197712,0.6946105,-0.03998764,8.1749534,56.475018)" />
    <linearGradient
       inkscape:collect="always"
       xlink:href="#linearGradient3156"
       id="linearGradient2901"
       gradientUnits="userSpaceOnUse"
       x1="27.888655"
       y1="-0.81503254"
       x2="28.290144"
       y2="20.663898"
       gradientTransform="matrix(1.1247273,-0.00679075,0.00112312,0.7429216,-7.8873839,2.6776872)" />
    <linearGradient
       inkscape:collect="always"
       xlink:href="#linearGradient3156"
       id="linearGradient2904"
       gradientUnits="userSpaceOnUse"
       x1="24.335312"
       y1="61.852856"
       x2="28.290144"
       y2="20.663898"
       gradientTransform="matrix(1.076193,-0.2912862,0.1952728,0.7143165,-11.182741,14.979481)" />
    <inkscape:perspective
       id="perspective4865"
       inkscape:persp3d-origin="0.5 : 0.33333333 : 1"
       inkscape:vp_z="1 : 0.5 : 1"
       inkscape:vp_y="0 : 1000 : 0"
       inkscape:vp_x="0 : 0.5 : 1"
       sodipodi:type="inkscape:persp3d" />
    <inkscape:perspective
       id="perspective4887"
       inkscape:persp3d-origin="0.5 : 0.33333333 : 1"
       inkscape:vp_z="1 : 0.5 : 1"
       inkscape:vp_y="0 : 1000 : 0"
       inkscape:vp_x="0 : 0.5 : 1"
       sodipodi:type="inkscape:persp3d" />
    <linearGradient
       id="linearGradient8838-1">
      <stop
         id="stop8840-1"
         style="stop-color:#000000;stop-opacity:1"
         offset="0" />
      <stop
         id="stop8842-4"
         style="stop-color:#000000;stop-opacity:0"
         offset="1" />
    </linearGradient>
    <linearGradient
       id="linearGradient4103-7">
      <stop
         id="stop4105-2"
         style="stop-color:#70adfb;stop-opacity:1"
         offset="0" />
      <stop
         id="stop4107-7"
         style="stop-color:#3465a4;stop-opacity:1"
         offset="1" />
    </linearGradient>
    <linearGradient
       id="linearGradient6493-3">
      <stop
         id="stop6495-9"
         style="stop-color:#4580d4;stop-opacity:1"
         offset="0" />
      <stop
         id="stop6497-2"
         style="stop-color:#114796;stop-opacity:1"
         offset="1" />
    </linearGradient>
    <linearGradient
       id="linearGradient6326-4">
      <stop
         id="stop6328-4"
         style="stop-color:#debc8c;stop-opacity:1"
         offset="0" />
      <stop
         id="stop6330-9"
         style="stop-color:#f4ac72;stop-opacity:1"
         offset="1" />
    </linearGradient>
    <linearGradient
       id="linearGradient3156-3">
      <stop
         id="stop3158-8"
         style="stop-color:#ffffff;stop-opacity:1"
         offset="0" />
      <stop
         id="stop3160-3"
         style="stop-color:#ffffff;stop-opacity:0"
         offset="1" />
    </linearGradient>
    <radialGradient
       inkscape:collect="always"
       xlink:href="#linearGradient3156-3"
       id="radialGradient2907-2"
       gradientUnits="userSpaceOnUse"
       gradientTransform="matrix(1.3571044,0.01021839,-0.00631345,0.8384895,-10.874695,1.3057951)"
       cx="22.944935"
       cy="11.222695"
       fx="22.944935"
       fy="4.7612267"
       r="14" />
    <linearGradient
       id="linearGradient4912">
      <stop
         id="stop4914"
         style="stop-color:#ffffff;stop-opacity:1"
         offset="0" />
      <stop
         id="stop4916"
         style="stop-color:#ffffff;stop-opacity:0"
         offset="1" />
    </linearGradient>
    <radialGradient
       inkscape:collect="always"
       xlink:href="#linearGradient3156-3"
       id="radialGradient5478"
       gradientUnits="userSpaceOnUse"
       gradientTransform="matrix(1.3571044,0.01021839,-0.00631345,0.8384895,-10.874695,1.3057951)"
       cx="22.944935"
       cy="11.222695"
       fx="22.944935"
       fy="4.7612267"
       r="14" />
    <radialGradient
       inkscape:collect="always"
       xlink:href="#linearGradient3156-3"
       id="radialGradient5481"
       gradientUnits="userSpaceOnUse"
       gradientTransform="matrix(1.0099925,-0.1119962,0.05668752,0.5112133,-5.837565,1.7934718)"
       cx="22.125"
       cy="10.874998"
       fx="22.125"
       fy="10.874998"
       r="20" />
    <radialGradient
       inkscape:collect="always"
       xlink:href="#linearGradient6326-4"
       id="radialGradient5484"
       gradientUnits="userSpaceOnUse"
       gradientTransform="matrix(2.2554569,0,-2.1857407e-8,2.0564463,-32.641879,-17.341228)"
       cx="26"
       cy="15.240479"
       fx="26"
       fy="15.240479"
       r="15.074549" />
    <radialGradient
       inkscape:collect="always"
       xlink:href="#linearGradient4103-7"
       id="radialGradient5488"
       gradientUnits="userSpaceOnUse"
       gradientTransform="matrix(1.9524671,-0.05018139,0.03650944,1.4214826,-20.408334,-5.9089096)"
       cx="20.038782"
       cy="12.610249"
       fx="20.038782"
       fy="12.610249"
       r="22.463524" />
    <linearGradient
       inkscape:collect="always"
       xlink:href="#linearGradient6493-3"
       id="linearGradient5490"
       gradientUnits="userSpaceOnUse"
       gradientTransform="translate(-5.0000016,-6)"
       x1="29.01346"
       y1="29"
       x2="29.75"
       y2="50" />
    <inkscape:perspective
       id="perspective5503"
       inkscape:persp3d-origin="0.5 : 0.33333333 : 1"
       inkscape:vp_z="1 : 0.5 : 1"
       inkscape:vp_y="0 : 1000 : 0"
       inkscape:vp_x="0 : 0.5 : 1"
       sodipodi:type="inkscape:persp3d" />
    <radialGradient
       inkscape:collect="always"
       xlink:href="#linearGradient8838-1-2"
       id="radialGradient5493-0"
       gradientUnits="userSpaceOnUse"
       gradientTransform="matrix(1.9262213,0,0,0.71948137,-97.163508,36.027894)"
       cx="62.625"
       cy="4.625"
       fx="62.625"
       fy="4.625"
       r="10.625" />
    <linearGradient
       id="linearGradient8838-1-2">
      <stop
         id="stop8840-1-0"
         style="stop-color:#000000;stop-opacity:1"
         offset="0" />
      <stop
         id="stop8842-4-7"
         style="stop-color:#000000;stop-opacity:0"
         offset="1" />
    </linearGradient>
    <radialGradient
       r="10.625"
       fy="4.625"
       fx="62.625"
       cy="4.625"
       cx="62.625"
       gradientTransform="matrix(1.7793702,0,0,0.6646296,-87.964381,35.148198)"
       gradientUnits="userSpaceOnUse"
       id="radialGradient5512"
       xlink:href="#linearGradient8838-1-2"
       inkscape:collect="always" />
  </defs>
  <g
     inkscape:groupmode="layer"
     id="layer3"
     inkscape:label="shadow">
    <path
       d="m 42.374487,38.222114 c 0,3.900069 -8.464417,7.061699 -18.905808,7.061699 -10.441391,0 -18.9058085,-3.16163 -18.9058085,-7.061699 0,-3.900069 8.4644175,-7.0617 18.9058085,-7.0617 10.441391,0 18.905808,3.161631 18.905808,7.0617 l 0,0 z"
       id="path8836"
       style="opacity:0.4;fill:url(#radialGradient5512);fill-opacity:1;fill-rule:evenodd;stroke:none;stroke-width:0.49589729;marker:none;visibility:visible;display:inline;overflow:visible" />
  </g>
  <g
     inkscape:groupmode="layer"
     id="layer2"
     inkscape:label="bottom"
     style="display:inline">
    <path
       d="m 44.500921,23 c 0,11.316512 -9.178384,20.500922 -20.487463,20.500922 -11.30908,0 -20.4874629,-9.18441 -20.4874629,-20.500922 0,-11.316509 9.1783829,-20.5009224 20.4874629,-20.5009224 11.309079,0 20.487463,9.1844134 20.487463,20.5009224 z"
       id="path1307"
       style="fill:url(#radialGradient5488);fill-opacity:1;stroke:url(#linearGradient5490);stroke-width:0.99815506;stroke-linecap:round;stroke-linejoin:round;stroke-miterlimit:4;stroke-opacity:1;stroke-dasharray:none;stroke-dashoffset:0" />
    <path
       d="M 43.219099,19.337303 43.03226,20.057842 C 42.479353,19.598341 41.858575,19.21192 41.228194,18.808339 l -1.383757,0.143595 -1.264237,-1.007844 0,1.247283 1.083135,0.577996 0.720932,0.57578 0.963449,-0.768406 c 0.242517,0.320344 0.481723,0.640687 0.722585,0.961031 l 0,0.95998 -1.08479,0.864133 -1.985167,0.961031 -1.503445,1.058044 -0.963448,-0.770739 0.481724,-0.864133 -0.961957,-0.768403 -1.62462,-2.448926 -1.383757,-1.103574 -0.362204,0.287307 0.54314,1.393213 1.021718,0.816269 c 0.583533,1.18798 1.160774,2.323424 1.927064,3.458986 1.188253,0 2.30847,-0.08896 3.48861,-0.193795 l 0,0.672677 -1.443683,2.497372 -1.323998,1.05571 -1.083133,1.634872 c 0,0.896122 0,1.792244 0,2.688249 l 0.362204,1.058043 -0.601411,0.478882 -1.325653,0.576827 -1.383756,0.816269 1.14455,0.912115 -1.564859,0.962198 0.300623,0.622477 -2.347372,1.874314 -1.563204,0 -1.323998,0.576828 -0.843926,0 0,-0.768404 -0.358894,-1.539144 c -0.465667,-0.964534 -0.950536,-1.92218 -1.443684,-2.879825 0,-0.70688 0.05976,-1.406872 0.119686,-2.113636 l 0.603068,-0.95998 -0.843929,-1.153773 0.06142,-1.584674 -1.14455,-0.912115 0.572274,-1.32025 -0.931169,-0.745056 -1.626273,0 -0.541485,-0.432068 -1.62462,0.721124 -0.661169,-0.529547 -1.5051,0.912582 c -1.02172,-0.816853 -2.045094,-1.633121 -3.068303,-2.44939 L 13.07,22.841935 l 1.083137,-1.151436 -0.601412,-0.479933 1.322342,-2.210651 c 1.086444,-0.953092 2.221227,-1.867425 3.369089,-2.785143 l 2.046584,-0.384204 2.285956,-0.191576 1.564859,0.288473 2.226032,1.583506 0.78251,-0.623643 1.081479,-0.09573 2.046584,0.479932 1.564861,0 1.083134,-0.672675 0.481723,-0.479932 -1.08479,-0.479932 -1.80572,-0.09573 c -0.501093,-0.490204 -0.966759,-1.005508 -1.561715,-1.441076 l -0.603065,0.191574 -0.240865,1.249502 -1.083133,-0.864131 -0.239207,-0.962199 -1.20282,-0.670338 -0.48338,0 1.20431,0.959978 -0.481723,0.864134 -0.961959,0.191576 0.60141,-0.864134 -1.084791,-0.383036 -0.960303,-0.768403 -1.807377,0.287304 -0.239206,0.383036 -1.083134,0.481099 -0.601411,1.056877 -1.503445,0.527797 -0.662824,-0.527797 -0.720932,0 0,-1.729435 1.564859,-0.576829 1.20282,0 -0.242517,-0.671507 -0.960303,-0.672675 1.62313,-0.240609 0.902032,-0.719371 0.720931,-0.8653012 1.325654,0 -0.362206,-0.6715064 0.843929,-0.3842031 0,0.7684043 1.804066,0.2873052 1.804067,-1.0557095 0.121174,-0.481099 1.563205,-0.7678216 c -0.56582,0.049618 -1.131638,0.08604 -1.684545,0.1921611 l 0,-0.8651834 0.601409,-0.9605654 -0.601409,0 -1.321678,0.8641345 -0.362207,0.4805153 0.362207,0.673259 -0.603067,1.1514366 -0.96196,-0.3842011 -0.840618,-0.6715065 -1.325651,0.6715065 -0.481725,-1.5362228 2.285956,-1.0562945 0,-0.5768291 L 25.223524,4.7847867 27.509479,4.4 l 1.56486,0.3847867 2.166268,0.9599803 -1.564858,0 1.564858,1.1526075 1.202823,-0.9599824 c 0,0 4.786235,2.4031505 7.258281,5.7266459 2.405352,3.233831 3.412213,6.909414 3.517388,7.673265 z"
       id="path4023"
       style="opacity:0.5;fill:#000000;fill-opacity:1;fill-rule:nonzero;stroke:none" />
    <path
       d="M 43.219099,18.237303 43.03226,18.957842 C 42.479353,18.498341 41.858575,18.11192 41.228194,17.708339 l -1.383757,0.143595 -1.264237,-1.007844 0,1.247283 1.083135,0.577996 0.720932,0.57578 0.963449,-0.768406 c 0.242517,0.320344 0.481723,0.640687 0.722585,0.961031 l 0,0.95998 -1.08479,0.864133 -1.985167,0.961031 -1.503445,1.058044 -0.963448,-0.770739 0.481724,-0.864133 -0.961957,-0.768403 -1.62462,-2.448926 -1.383757,-1.103574 -0.362204,0.287307 0.54314,1.393213 1.021718,0.816269 c 0.583533,1.18798 1.160774,2.323424 1.927064,3.458986 1.188253,0 2.30847,-0.08896 3.48861,-0.193795 l 0,0.672677 -1.443683,2.497372 -1.323998,1.05571 -1.083133,1.634872 c 0,0.896122 0,1.792244 0,2.688249 l 0.362204,1.058043 -0.601411,0.478882 -1.325653,0.576827 -1.383756,0.816269 1.14455,0.912115 -1.564859,0.962198 0.300623,0.622477 -2.347372,1.874314 -1.563204,0 -1.323998,0.576828 -0.843926,0 0,-0.768404 -0.358894,-1.539144 c -0.465667,-0.964534 -0.950536,-1.92218 -1.443684,-2.879825 0,-0.70688 0.05976,-1.406872 0.119686,-2.113636 l 0.603068,-0.95998 -0.843929,-1.153773 0.06142,-1.584674 -1.14455,-0.912115 0.572274,-1.32025 -0.931169,-0.745056 -1.626273,0 -0.541485,-0.432068 -1.62462,0.721124 -0.661169,-0.529547 -1.5051,0.912582 c -1.02172,-0.816853 -2.045094,-1.633121 -3.068303,-2.44939 L 13.07,21.741935 l 1.083137,-1.151436 -0.601412,-0.479933 1.322342,-2.210651 c 1.086444,-0.953092 2.221227,-1.867425 3.369089,-2.785143 l 2.046584,-0.384204 2.285956,-0.191576 1.564859,0.288473 2.226032,1.583506 0.78251,-0.623643 1.081479,-0.09573 2.046584,0.479932 1.564861,0 1.083134,-0.672675 0.481723,-0.479932 -1.08479,-0.479932 -1.80572,-0.09573 c -0.501093,-0.490204 -0.966759,-1.005508 -1.561715,-1.441076 l -0.603065,0.191574 -0.240865,1.249502 -1.083133,-0.864131 -0.239207,-0.962199 -1.20282,-0.670338 -0.48338,0 1.20431,0.959978 -0.481723,0.864134 -0.961959,0.191576 0.60141,-0.864134 -1.084791,-0.383036 -0.960303,-0.768403 -1.807377,0.287304 -0.239206,0.383036 -1.083134,0.481099 -0.601411,1.056877 -1.503445,0.527797 -0.662824,-0.527797 -0.720932,0 0,-1.729435 1.564859,-0.576829 1.20282,0 -0.242517,-0.671507 -0.960303,-0.672675 1.62313,-0.240609 0.902032,-0.719371 0.720931,-0.8653012 1.325654,0 -0.362206,-0.6715064 0.843929,-0.3842031 0,0.7684043 1.804066,0.2873052 1.804067,-1.0557095 0.121174,-0.481099 1.563205,-0.7678216 c -0.56582,0.049618 -1.131638,0.08604 -1.684545,0.1921611 l 0,-0.8651834 0.601409,-0.9605654 -0.601409,0 -1.321678,0.8641345 -0.362207,0.4805153 0.362207,0.673259 -0.603067,1.1514366 -0.96196,-0.3842011 -0.840618,-0.6715065 -1.325651,0.6715065 -0.481725,-1.5362228 2.285956,-1.0562945 0,-0.5768291 L 25.223524,3.6847867 27.509479,3.3 l 1.56486,0.3847867 2.166268,0.9599803 -1.564858,0 1.564858,1.1526075 1.202823,-0.9599824 c 0,0 4.786235,2.4031505 7.258281,5.7266459 2.405352,3.233831 3.412213,6.909414 3.517388,7.673265 z"
       id="path6628"
       style="fill:url(#radialGradient5484);fill-opacity:1;fill-rule:nonzero;stroke:none" />
    <path
       d="m 43.501763,23 c 0,10.764976 -8.736791,19.501764 -19.501765,19.501764 C 13.235024,42.501764 4.4982338,33.764976 4.4982338,23 c 0,-10.764974 8.7367902,-19.5017646 19.5017642,-19.5017646 10.764974,0 19.501765,8.7367906 19.501765,19.5017646 z"
       id="path3164"
       style="opacity:0.4;fill:none;stroke:url(#radialGradient5481);stroke-width:0.99647081;stroke-linecap:round;stroke-linejoin:round;stroke-miterlimit:4;stroke-opacity:1;stroke-dasharray:none;stroke-dashoffset:0" />
    <path
       d="m 42.999998,16.746704 c 0,7.114117 -8.512001,11.02908 -18.999999,11.02908 -10.488002,0 -19.0000006,-3.914963 -19.0000006,-11.02908 C 4.9999984,9.632588 13.511997,2 23.999999,2 34.487997,2 42.999998,9.632588 42.999998,16.746704 z"
       id="path3154"
       style="opacity:0.4;fill:url(#radialGradient5478);fill-opacity:1;stroke:none" />
  </g>
  <g
     inkscape:groupmode="layer"
     id="layer1"
     inkscape:label="top"
     style="display:none">
    <rect
       inkscape:tile-y0="1.978134"
       inkscape:tile-x0="2.1572731"
       ry="0.01371913"
       y="12.622105"
       x="3.7843916"
       height="3.7199097"
       width="3.7199097"
       id="use5161"
       style="fill:#85e9ff;stroke:none" />
    <rect
       inkscape:tile-y0="1.978134"
       inkscape:tile-x0="2.1572731"
       ry="0.01371913"
       y="17.085995"
       x="3.7843916"
       height="3.7199097"
       width="3.7199097"
       id="use5163"
       style="fill:#5da0fc;stroke:none" />
    <rect
       inkscape:tile-y0="1.978134"
       inkscape:tile-x0="2.1572731"
       ry="0.01371913"
       y="21.549889"
       x="3.7843916"
       height="3.7199097"
       width="3.7199097"
       id="use5165"
       style="fill:#508ad7;stroke:none" />
    <rect
       inkscape:tile-y0="1.978134"
       inkscape:tile-x0="2.1572731"
       ry="0.01371913"
       y="26.013779"
       x="3.7843916"
       height="3.7199097"
       width="3.7199097"
       id="use5167"
       style="fill:#5094f0;stroke:none" />
    <rect
       inkscape:tile-y0="1.978134"
       inkscape:tile-x0="2.1572731"
       ry="0.01371913"
       y="30.477671"
       x="3.7843916"
       height="3.7199097"
       width="3.7199097"
       id="use5169"
       style="fill:#68e1ff;stroke:none" />
    <rect
       inkscape:tile-y0="1.978134"
       inkscape:tile-x0="2.1572731"
       ry="0.01371913"
       y="8.1582127"
       x="8.2482834"
       height="3.7199097"
       width="3.7199097"
       id="use5177"
       style="fill:#9bd5ff;stroke:none" />
    <rect
       inkscape:tile-y0="1.978134"
       inkscape:tile-x0="2.1572731"
       ry="0.01371913"
       y="12.622105"
       x="8.2482834"
       height="3.7199097"
       width="3.7199097"
       id="use5179"
       style="fill:#74a7e8;stroke:none" />
    <rect
       inkscape:tile-y0="1.978134"
       inkscape:tile-x0="2.1572731"
       ry="0.01371913"
       y="17.085995"
       x="8.2482834"
       height="3.7199097"
       width="3.7199097"
       id="use5181"
       style="fill:#6299e0;stroke:none" />
    <rect
       inkscape:tile-y0="1.978134"
       inkscape:tile-x0="2.1572731"
       ry="0.01371913"
       y="21.549889"
       x="8.2482834"
       height="3.7199097"
       width="3.7199097"
       id="use5183"
       style="fill:#568dd5;stroke:none" />
    <rect
       inkscape:tile-y0="1.978134"
       inkscape:tile-x0="2.1572731"
       ry="0.01371913"
       y="26.013779"
       x="8.2482834"
       height="3.7199097"
       width="3.7199097"
       id="use5185"
       style="fill:#4d83c9;stroke:none" />
    <rect
       inkscape:tile-y0="1.978134"
       inkscape:tile-x0="2.1572731"
       ry="0.01371913"
       y="30.477671"
       x="8.2482834"
       height="3.7199097"
       width="3.7199097"
       id="use5187"
       style="fill:#4478bc;stroke:none" />
    <rect
       inkscape:tile-y0="1.978134"
       inkscape:tile-x0="2.1572731"
       ry="0.01371913"
       y="34.941563"
       x="8.2482834"
       height="3.7199097"
       width="3.7199097"
       id="use5189"
       style="fill:#306ec5;stroke:none" />
    <rect
       inkscape:tile-y0="1.978134"
       inkscape:tile-x0="2.1572731"
       ry="0.01371913"
       y="3.6943209"
       x="12.712175"
       height="3.7199097"
       width="3.7199097"
       id="use5193"
       style="fill:#bbf5ff;stroke:none" />
    <rect
       inkscape:tile-y0="1.978134"
       inkscape:tile-x0="2.1572731"
       ry="0.01371913"
       y="8.1582127"
       x="12.712175"
       height="3.7199097"
       width="3.7199097"
       id="use5195"
       style="fill:#91bcf3;stroke:none" />
    <rect
       inkscape:tile-y0="1.978134"
       inkscape:tile-x0="2.1572731"
       ry="0.01371913"
       y="12.622105"
       x="12.712175"
       height="3.7199097"
       width="3.7199097"
       id="use5197"
       style="fill:#81b2f1;stroke:none" />
    <rect
       inkscape:tile-y0="1.978134"
       inkscape:tile-x0="2.1572731"
       ry="0.01371913"
       y="17.085995"
       x="12.712175"
       height="3.7199097"
       width="3.7199097"
       id="use5199"
       style="fill:#94aac9;stroke:none" />
    <rect
       inkscape:tile-y0="1.978134"
       inkscape:tile-x0="2.1572731"
       ry="0.01371913"
       y="21.549889"
       x="12.712175"
       height="3.7199097"
       width="3.7199097"
       id="use5201"
       style="fill:#98989f;stroke:none" />
    <rect
       inkscape:tile-y0="1.978134"
       inkscape:tile-x0="2.1572731"
       ry="0.01371913"
       y="26.013779"
       x="12.712175"
       height="3.7199097"
       width="3.7199097"
       id="use5203"
       style="fill:#4f86cc;stroke:none" />
    <rect
       inkscape:tile-y0="1.978134"
       inkscape:tile-x0="2.1572731"
       ry="0.01371913"
       y="30.477671"
       x="12.712175"
       height="3.7199097"
       width="3.7199097"
       id="use5205"
       style="fill:#467bbe;stroke:none" />
    <rect
       inkscape:tile-y0="1.978134"
       inkscape:tile-x0="2.1572731"
       ry="0.01371913"
       y="34.941563"
       x="12.712175"
       height="3.7199097"
       width="3.7199097"
       id="use5207"
       style="fill:#3c6fb1;stroke:none" />
    <rect
       inkscape:tile-y0="1.978134"
       inkscape:tile-x0="2.1572731"
       ry="0.01371913"
       y="39.405453"
       x="12.712175"
       height="3.7199097"
       width="3.7199097"
       id="use5209"
       style="fill:#143e7c;stroke:none" />
    <rect
       inkscape:tile-y0="1.978134"
       inkscape:tile-x0="2.1572731"
       ry="0.01371913"
       y="3.6943209"
       x="17.176065"
       height="3.7199097"
       width="3.7199097"
       id="use5211"
       style="fill:#b8e2ff;stroke:none" />
    <rect
       inkscape:tile-y0="1.978134"
       inkscape:tile-x0="2.1572731"
       ry="0.01371913"
       y="8.1582127"
       x="17.176065"
       height="3.7199097"
       width="3.7199097"
       id="use5213"
       style="fill:#a4c5ee;stroke:none" />
    <rect
       inkscape:tile-y0="1.978134"
       inkscape:tile-x0="2.1572731"
       ry="0.01371913"
       y="12.622105"
       x="17.176065"
       height="3.7199097"
       width="3.7199097"
       id="use5215"
       style="fill:#c4b4a3;stroke:none" />
    <rect
       inkscape:tile-y0="1.978134"
       inkscape:tile-x0="2.1572731"
       ry="0.01371913"
       y="17.085995"
       x="17.176065"
       height="3.7199097"
       width="3.7199097"
       id="use5217"
       style="fill:#e6bf91;stroke:none" />
    <rect
       inkscape:tile-y0="1.978134"
       inkscape:tile-x0="2.1572731"
       ry="0.01371913"
       y="21.549889"
       x="17.176065"
       height="3.7199097"
       width="3.7199097"
       id="use5219"
       style="fill:#e6b784;stroke:none" />
    <rect
       inkscape:tile-y0="1.978134"
       inkscape:tile-x0="2.1572731"
       ry="0.01371913"
       y="26.013779"
       x="17.176065"
       height="3.7199097"
       width="3.7199097"
       id="use5221"
       style="fill:#497ab9;stroke:none" />
    <rect
       inkscape:tile-y0="1.978134"
       inkscape:tile-x0="2.1572731"
       ry="0.01371913"
       y="30.477671"
       x="17.176065"
       height="3.7199097"
       width="3.7199097"
       id="use5223"
       style="fill:#477cbf;stroke:none" />
    <rect
       inkscape:tile-y0="1.978134"
       inkscape:tile-x0="2.1572731"
       ry="0.01371913"
       y="34.941563"
       x="17.176065"
       height="3.7199097"
       width="3.7199097"
       id="use5225"
       style="fill:#3d70b1;stroke:none" />
    <rect
       inkscape:tile-y0="1.978134"
       inkscape:tile-x0="2.1572731"
       ry="0.01371913"
       y="39.405453"
       x="17.176065"
       height="3.7199097"
       width="3.7199097"
       id="use5227"
       style="fill:#265aa3;stroke:none" />
    <rect
       inkscape:tile-y0="1.978134"
       inkscape:tile-x0="2.1572731"
       ry="0.01371913"
       y="3.6943209"
       x="21.639957"
       height="3.7199097"
       width="3.7199097"
       id="use5229"
       style="fill:#a9bcd9;stroke:none" />
    <rect
       inkscape:tile-y0="1.978134"
       inkscape:tile-x0="2.1572731"
       ry="0.01371913"
       y="8.1582127"
       x="21.639957"
       height="3.7199097"
       width="3.7199097"
       id="use5231"
       style="fill:#cac0b3;stroke:none" />
    <rect
       inkscape:tile-y0="1.978134"
       inkscape:tile-x0="2.1572731"
       ry="0.01371913"
       y="12.622105"
       x="21.639957"
       height="3.7199097"
       width="3.7199097"
       id="use5233"
       style="fill:#a1aab6;stroke:none" />
    <rect
       inkscape:tile-y0="1.978134"
       inkscape:tile-x0="2.1572731"
       ry="0.01371913"
       y="17.085995"
       x="21.639957"
       height="3.7199097"
       width="3.7199097"
       id="use5235"
       style="fill:#e4c093;stroke:none" />
    <rect
       inkscape:tile-y0="1.978134"
       inkscape:tile-x0="2.1572731"
       ry="0.01371913"
       y="21.549889"
       x="21.639957"
       height="3.7199097"
       width="3.7199097"
       id="use5237"
       style="fill:#e5b885;stroke:none" />
    <rect
       inkscape:tile-y0="1.978134"
       inkscape:tile-x0="2.1572731"
       ry="0.01371913"
       y="26.013779"
       x="21.639957"
       height="3.7199097"
       width="3.7199097"
       id="use5239"
       style="fill:#7c8ba2;stroke:none" />
    <rect
       inkscape:tile-y0="1.978134"
       inkscape:tile-x0="2.1572731"
       ry="0.01371913"
       y="30.477671"
       x="21.639957"
       height="3.7199097"
       width="3.7199097"
       id="use5241"
       style="fill:#6483af;stroke:none" />
    <rect
       inkscape:tile-y0="1.978134"
       inkscape:tile-x0="2.1572731"
       ry="0.01371913"
       y="34.941563"
       x="21.639957"
       height="3.7199097"
       width="3.7199097"
       id="use5243"
       style="fill:#3d6eae;stroke:none" />
    <rect
       inkscape:tile-y0="1.978134"
       inkscape:tile-x0="2.1572731"
       ry="0.01371913"
       y="39.405453"
       x="21.639957"
       height="3.7199097"
       width="3.7199097"
       id="use5245"
       style="fill:#285a9d;stroke:none" />
    <rect
       inkscape:tile-y0="1.978134"
       inkscape:tile-x0="2.1572731"
       ry="0.01371913"
       y="3.6943209"
       x="26.103849"
       height="3.7199097"
       width="3.7199097"
       id="use5247"
       style="fill:#c1c4cf;stroke:none" />
    <rect
       inkscape:tile-y0="1.978134"
       inkscape:tile-x0="2.1572731"
       ry="0.01371913"
       y="8.1582127"
       x="26.103849"
       height="3.7199097"
       width="3.7199097"
       id="use5249"
       style="fill:#e2c8a7;stroke:none" />
    <rect
       inkscape:tile-y0="1.978134"
       inkscape:tile-x0="2.1572731"
       ry="0.01371913"
       y="12.622105"
       x="26.103849"
       height="3.7199097"
       width="3.7199097"
       id="use5251"
       style="fill:#97a3b3;stroke:none" />
    <rect
       inkscape:tile-y0="1.978134"
       inkscape:tile-x0="2.1572731"
       ry="0.01371913"
       y="17.085995"
       x="26.103849"
       height="3.7199097"
       width="3.7199097"
       id="use5253"
       style="fill:#e2be91;stroke:none" />
    <rect
       inkscape:tile-y0="1.978134"
       inkscape:tile-x0="2.1572731"
       ry="0.01371913"
       y="21.549889"
       x="26.103849"
       height="3.7199097"
       width="3.7199097"
       id="use5255"
       style="fill:#e5b784;stroke:none" />
    <rect
       inkscape:tile-y0="1.978134"
       inkscape:tile-x0="2.1572731"
       ry="0.01371913"
       y="26.013779"
       x="26.103849"
       height="3.7199097"
       width="3.7199097"
       id="use5257"
       style="fill:#e8b580;stroke:none" />
    <rect
       inkscape:tile-y0="1.978134"
       inkscape:tile-x0="2.1572731"
       ry="0.01371913"
       y="30.477671"
       x="26.103849"
       height="3.7199097"
       width="3.7199097"
       id="use5259"
       style="fill:#ecb27c;stroke:none" />
    <rect
       inkscape:tile-y0="1.978134"
       inkscape:tile-x0="2.1572731"
       ry="0.01371913"
       y="34.941563"
       x="26.103849"
       height="3.7199097"
       width="3.7199097"
       id="use5261"
       style="fill:#b79172;stroke:none" />
    <rect
       inkscape:tile-y0="1.978134"
       inkscape:tile-x0="2.1572731"
       ry="0.01371913"
       y="39.405453"
       x="26.103849"
       height="3.7199097"
       width="3.7199097"
       id="use5263"
       style="fill:#265ca5;stroke:none" />
    <rect
       inkscape:tile-y0="1.978134"
       inkscape:tile-x0="2.1572731"
       ry="0.01371913"
       y="3.6943209"
       x="30.567741"
       height="3.7199097"
       width="3.7199097"
       id="use5265"
       style="fill:#9eccff;stroke:none" />
    <rect
       inkscape:tile-y0="1.978134"
       inkscape:tile-x0="2.1572731"
       ry="0.01371913"
       y="8.1582127"
       x="30.567741"
       height="3.7199097"
       width="3.7199097"
       id="use5267"
       style="fill:#e7c195;stroke:none" />
    <rect
       inkscape:tile-y0="1.978134"
       inkscape:tile-x0="2.1572731"
       ry="0.01371913"
       y="12.622105"
       x="30.567741"
       height="3.7199097"
       width="3.7199097"
       id="use5269"
       style="fill:#cbb192;stroke:none" />
    <rect
       inkscape:tile-y0="1.978134"
       inkscape:tile-x0="2.1572731"
       ry="0.01371913"
       y="17.085995"
       x="30.567741"
       height="3.7199097"
       width="3.7199097"
       id="use5271"
       style="fill:#c7ab8b;stroke:none" />
    <rect
       inkscape:tile-y0="1.978134"
       inkscape:tile-x0="2.1572731"
       ry="0.01371913"
       y="21.549889"
       x="30.567741"
       height="3.7199097"
       width="3.7199097"
       id="use5273"
       style="fill:#e6b683;stroke:none" />
    <rect
       inkscape:tile-y0="1.978134"
       inkscape:tile-x0="2.1572731"
       ry="0.01371913"
       y="26.013779"
       x="30.567741"
       height="3.7199097"
       width="3.7199097"
       id="use5275"
       style="fill:#e9b47f;stroke:none" />
    <rect
       inkscape:tile-y0="1.978134"
       inkscape:tile-x0="2.1572731"
       ry="0.01371913"
       y="30.477671"
       x="30.567741"
       height="3.7199097"
       width="3.7199097"
       id="use5277"
       style="fill:#d2a378;stroke:none" />
    <rect
       inkscape:tile-y0="1.978134"
       inkscape:tile-x0="2.1572731"
       ry="0.01371913"
       y="34.941563"
       x="30.567741"
       height="3.7199097"
       width="3.7199097"
       id="use5279"
       style="fill:#556e92;stroke:none" />
    <rect
       inkscape:tile-y0="1.978134"
       inkscape:tile-x0="2.1572731"
       ry="0.01371913"
       y="39.405453"
       x="30.567741"
       height="3.7199097"
       width="3.7199097"
       id="use5281"
       style="fill:#194e9a;stroke:none" />
    <rect
       inkscape:tile-y0="1.978134"
       inkscape:tile-x0="2.1572731"
       ry="0.01371913"
       y="3.6943209"
       x="35.031635"
       height="3.7199097"
       width="3.7199097"
       id="use5283"
       style="fill:#ffffff;stroke:none" />
    <rect
       inkscape:tile-y0="1.978134"
       inkscape:tile-x0="2.1572731"
       ry="0.01371913"
       y="8.1582127"
       x="35.031635"
       height="3.7199097"
       width="3.7199097"
       id="use5285"
       style="fill:#bab9c0;stroke:none" />
    <rect
       inkscape:tile-y0="1.978134"
       inkscape:tile-x0="2.1572731"
       ry="0.01371913"
       y="12.622105"
       x="35.031635"
       height="3.7199097"
       width="3.7199097"
       id="use5287"
       style="fill:#e6b785;stroke:none" />
    <rect
       inkscape:tile-y0="1.978134"
       inkscape:tile-x0="2.1572731"
       ry="0.01371913"
       y="17.085995"
       x="35.031635"
       height="3.7199097"
       width="3.7199097"
       id="use5289"
       style="fill:#d8ae81;stroke:none" />
    <rect
       inkscape:tile-y0="1.978134"
       inkscape:tile-x0="2.1572731"
       ry="0.01371913"
       y="21.549889"
       x="35.031635"
       height="3.7199097"
       width="3.7199097"
       id="use5291"
       style="fill:#b49a82;stroke:none" />
    <rect
       inkscape:tile-y0="1.978134"
       inkscape:tile-x0="2.1572731"
       ry="0.01371913"
       y="26.013779"
       x="35.031635"
       height="3.7199097"
       width="3.7199097"
       id="use5293"
       style="fill:#5c79a1;stroke:none" />
    <rect
       inkscape:tile-y0="1.978134"
       inkscape:tile-x0="2.1572731"
       ry="0.01371913"
       y="30.477671"
       x="35.031635"
       height="3.7199097"
       width="3.7199097"
       id="use5295"
       style="fill:#4072b3;stroke:none" />
    <rect
       inkscape:tile-y0="1.978134"
       inkscape:tile-x0="2.1572731"
       ry="0.01371913"
       y="34.941563"
       x="35.031635"
       height="3.7199097"
       width="3.7199097"
       id="use5297"
       style="fill:#2f6abc;stroke:none" />
    <rect
       inkscape:tile-y0="1.978134"
       inkscape:tile-x0="2.1572731"
       ry="0.01371913"
       y="8.1582127"
       x="39.495525"
       height="3.7199097"
       width="3.7199097"
       id="use5303"
       style="fill:#ffffff;stroke:none" />
    <rect
       inkscape:tile-y0="1.978134"
       inkscape:tile-x0="2.1572731"
       ry="0.01371913"
       y="12.622105"
       x="39.495525"
       height="3.7199097"
       width="3.7199097"
       id="use5305"
       style="fill:#95befe;stroke:none" />
    <rect
       inkscape:tile-y0="1.978134"
       inkscape:tile-x0="2.1572731"
       ry="0.01371913"
       y="17.085995"
       x="39.495525"
       height="3.7199097"
       width="3.7199097"
       id="use5307"
       style="fill:#879aba;stroke:none" />
    <rect
       inkscape:tile-y0="1.978134"
       inkscape:tile-x0="2.1572731"
       ry="0.01371913"
       y="21.549889"
       x="39.495525"
       height="3.7199097"
       width="3.7199097"
       id="use5309"
       style="fill:#467cc3;stroke:none" />
    <rect
       inkscape:tile-y0="1.978134"
       inkscape:tile-x0="2.1572731"
       ry="0.01371913"
       y="26.013779"
       x="39.495525"
       height="3.7199097"
       width="3.7199097"
       id="use5311"
       style="fill:#4684d6;stroke:none" />
    <rect
       inkscape:tile-y0="1.978134"
       inkscape:tile-x0="2.1572731"
       ry="0.01371913"
       y="30.477671"
       x="39.495525"
       height="3.7199097"
       width="3.7199097"
       id="use5313"
       style="fill:#4597ff;stroke:none" />
  </g>
</svg>
